<svg
  width="20"
  height="21"
  viewBox="0 0 20 21"
  fill="none"
  xmlns="http://www.w3.org/2000/svg"
>
<path
    d="M15.56 20C15.4001 20.0006 15.2423 19.9629 15.1 19.89L10 17.22L4.90001 19.89C4.7344 19.9771 4.54768 20.016 4.36108 20.0022C4.17448 19.9885 3.99548 19.9226 3.84444 19.8122C3.69339 19.7018 3.57635 19.5512 3.50662 19.3776C3.4369 19.2039 3.41728 19.0142 3.45001 18.83L4.45001 13.2L0.330007 9.20001C0.201464 9.07173 0.110278 8.91087 0.0662345 8.7347C0.0221906 8.55852 0.0269517 8.37368 0.0800067 8.20001C0.137967 8.02228 0.244583 7.86436 0.387757 7.74416C0.530931 7.62397 0.704929 7.54631 0.890007 7.52001L6.59001 6.69001L9.10001 1.56001C9.18189 1.39093 9.30974 1.24835 9.46892 1.14858C9.62809 1.04881 9.81215 0.995895 10 0.995895C10.1879 0.995895 10.3719 1.04881 10.5311 1.14858C10.6903 1.24835 10.8181 1.39093 10.9 1.56001L13.44 6.68001L19.14 7.51001C19.3251 7.53631 19.4991 7.61397 19.6423 7.73416C19.7854 7.85436 19.892 8.01228 19.95 8.19001C20.0031 8.36368 20.0078 8.54852 19.9638 8.7247C19.9197 8.90087 19.8286 9.06173 19.7 9.19001L15.58 13.19L16.58 18.82C16.6157 19.0075 16.597 19.2013 16.5261 19.3785C16.4553 19.5557 16.3352 19.7089 16.18 19.82C15.9989 19.9469 15.7809 20.0102 15.56 20Z"
    fill="#6a097d"
  />
</svg>
